<?xml version="1.0" encoding="UTF-8" standalone="no"?>
<svg
   xmlns:dc="http://purl.org/dc/elements/1.1/"
   xmlns:cc="http://creativecommons.org/ns#"
   xmlns:rdf="http://www.w3.org/1999/02/22-rdf-syntax-ns#"
   xmlns:svg="http://www.w3.org/2000/svg"
   xmlns="http://www.w3.org/2000/svg"
   xmlns:sodipodi="http://sodipodi.sourceforge.net/DTD/sodipodi-0.dtd"
   xmlns:inkscape="http://www.inkscape.org/namespaces/inkscape"
   id="svg8"
   version="1.1"
   viewBox="0 0 806.61632 806.61632"
   height="current"
   width="current"
   sodipodi:docname="logo.svg.2021_02_27_13_52_42.0.svg"
   inkscape:version="1.0.2 (e86c870879, 2021-01-15)"
   inkscape:export-filename="/home/robbo/k8s/homepage/app/data/src/assets/images/logo.svg.2021_02_27_13_52_42.0.png"
   inkscape:export-xdpi="96"
   inkscape:export-ydpi="96">
  <sodipodi:namedview
     pagecolor="#333333"
     bordercolor="#666666"
     borderopacity="1"
     objecttolerance="10"
     gridtolerance="10"
     guidetolerance="10"
     inkscape:pageopacity="0"
     inkscape:pageshadow="2"
     inkscape:window-width="2940"
     inkscape:window-height="1910"
     id="namedview78"
     showgrid="false"
     inkscape:document-rotation="0"
     inkscape:zoom="256"
     inkscape:cx="628.12453"
     inkscape:cy="566.54912"
     inkscape:window-x="30"
     inkscape:window-y="70"
     inkscape:window-maximized="0"
     inkscape:current-layer="svg8" />
  <defs
     id="defs2" />
  <metadata
     id="metadata5">
    <rdf:RDF>
      <cc:Work
         rdf:about="">
        <dc:format>image/svg+xml</dc:format>
        <dc:type
           rdf:resource="http://purl.org/dc/dcmitype/StillImage" />
        <dc:title />
      </cc:Work>
    </rdf:RDF>
  </metadata>
  <g
     transform="translate(330.57415,287.52139)"
     id="layer1">
    <path
       transform="matrix(0.26458333,0,0,0.26458333,-330.57415,-287.52139)"
       d="M 1427.5273 11.396484 A 1514.1803 1514.1803 0 0 0 444.26172 460.67188 L 557.39844 560.52734 A 1366.5477 1366.5477 0 0 1 1427.5273 161.09961 L 1427.5273 11.396484 z M 1621.0566 11.470703 L 1621.0566 160.79492 A 1366.5477 1366.5477 0 0 1 2494.4355 559.46094 L 2604.6504 462.18359 A 1514.1803 1514.1803 0 0 0 1621.0566 11.470703 z M 1621.0566 357.69922 L 1621.0566 663.33398 A 865.58592 865.58592 0 0 1 2116.6348 892.91406 L 2346.2324 690.26758 A 1168.7148 1168.7148 0 0 0 1621.0566 357.69922 z M 1427.5273 357.93359 A 1168.7148 1168.7148 0 0 0 704.81641 690.64062 L 932.21094 891.3418 A 865.58592 865.58592 0 0 1 1427.5273 663.17578 L 1427.5273 357.93359 z M 326.92578 594.92188 A 1514.1803 1514.1803 0 0 0 9.5332031 1522.5176 A 1514.1803 1514.1803 0 0 0 1427.5273 3033.6387 L 1427.5273 2887.0234 A 1366.5477 1366.5477 0 0 1 159.90039 1524.0605 A 1366.5477 1366.5477 0 0 1 440.19727 694.89648 L 326.92578 594.92188 z M 2721.8008 596.59961 L 2611.7832 693.70117 A 1366.5477 1366.5477 0 0 1 2892.9961 1524.0605 A 1366.5477 1366.5477 0 0 1 1621.0566 2887.3301 L 1621.0566 3033.5645 A 1514.1803 1514.1803 0 0 0 3037.8926 1522.5176 A 1514.1803 1514.1803 0 0 0 2721.8008 596.59961 z M 2463.2832 824.76953 L 2233.2402 1027.8066 A 865.58592 865.58592 0 0 1 2389.1699 1523.4141 A 865.58592 865.58592 0 0 1 1621.0566 2383.4941 L 1621.0566 2687.3359 A 1168.7148 1168.7148 0 0 0 2694.4277 1522.5176 A 1168.7148 1168.7148 0 0 0 2463.2832 824.76953 z M 587.82422 825.19531 A 1168.7148 1168.7148 0 0 0 356.99805 1522.5176 A 1168.7148 1168.7148 0 0 0 1427.5273 2687.0996 L 1427.5273 2383.6543 A 865.58592 865.58592 0 0 1 657.99805 1523.4141 A 865.58592 865.58592 0 0 1 815.24805 1025.9199 L 587.82422 825.19531 z M 1427.5273 959.52344 A 574.99376 574.99376 0 0 0 1153.5801 1086.7246 L 1259.6211 1180.3203 A 434.06728 434.06728 0 0 1 1427.5273 1100.8223 L 1427.5273 959.52344 z M 1621.0566 959.55469 L 1621.0566 1100.4883 A 434.06728 434.06728 0 0 1 1790.7324 1180.5605 L 1895.9629 1087.6836 A 574.99376 574.99376 0 0 0 1621.0566 959.55469 z M 1036.7266 1221.4004 A 574.99376 574.99376 0 0 0 949.21094 1526.332 A 574.99376 574.99376 0 0 0 1427.5273 2093.1387 L 1427.5273 1946.7715 A 434.06728 434.06728 0 0 1 1090.9551 1523.7969 A 434.06728 434.06728 0 0 1 1143.9219 1316.0117 L 1036.7266 1221.4004 z M 2012.4688 1222.6641 L 1906.3125 1316.3574 A 434.06728 434.06728 0 0 1 1959.0898 1523.7969 A 434.06728 434.06728 0 0 1 1621.0566 1947.1055 L 1621.0566 2093.1074 A 574.99376 574.99376 0 0 0 2099.1973 1526.332 A 574.99376 574.99376 0 0 0 2012.4688 1222.6641 z M 2582.4824 1508.8496 A 1054.7651 1054.7651 0 0 1 2582.5898 1523.709 A 1054.7651 1054.7651 0 0 1 2058.0938 2435.4902 A 1056.8591 1056.8591 0 0 0 2582.5723 1522.5176 A 1056.8591 1056.8591 0 0 0 2582.4824 1508.8496 z "
       style="fill:current;fill-opacity:1;stroke:current;stroke-width:0;stroke-linecap:round;stroke-miterlimit:4;stroke-dasharray:none;stroke-opacity:1"
       id="path839-1" />
  </g>
  <g
     id="layer2" />
  <path
     style="fill:#a0a0a0;stroke:none;stroke-width:0.491839"
     d="M 369.86309,801.85374 C 282.89901,794.31085 201.95698,759.51967 136.7313,701.64721 129.50851,695.23864 113.6575,679.49211 106.65244,671.7666 85.4893,648.42678 66.567114,621.79965 51.540427,594.2134 13.717085,524.7767 -2.7721206,445.03481 4.4400476,366.43571 11.135507,293.46776 38.046348,222.96895 81.563798,164.39325 c 4.291455,-5.77642 4.932965,-6.44138 5.688991,-5.89692 3.125796,2.25107 28.563301,25.26534 28.398961,25.69361 -0.11231,0.29268 -2.13977,3.17987 -4.50547,6.41599 -61.900647,84.676 -83.691599,194.39291 -59.005765,297.0926 6.914271,28.76524 16.112928,53.53313 29.942439,80.62169 6.918284,13.55119 11.738943,21.81887 20.217866,34.67466 52.51915,79.62995 135.41315,135.57425 229.19881,154.68398 13.69535,2.79055 37.65819,6.14622 43.89665,6.14715 l 2.09032,3e-4 v 19.18173 19.18173 l -2.82807,-0.0827 c -1.55545,-0.0453 -3.71339,-0.15946 -4.79544,-0.25335 z"
     id="path80" />
  <path
     style="fill:#a0a0a0;stroke:none;stroke-width:0.491839"
     d="M 371.33861,710.16606 C 310.5673,703.34551 254.4833,679.89979 208.04799,641.90297 147.8483,592.64313 108.48421,522.54329 97.680817,445.36041 c -2.277546,-16.27151 -2.898866,-27.5508 -2.614471,-47.46248 0.447967,-31.364 4.230565,-55.90181 13.156384,-85.34579 9.48403,-31.28537 26.23687,-65.03381 44.867,-90.38418 2.17578,-2.96061 2.54565,-3.26303 3.25386,-2.66035 8.1167,6.9072 58.59014,51.71612 58.59014,52.01468 0,0.22855 -1.65091,2.94754 -3.6687,6.04221 -16.91187,25.93762 -28.74937,55.92127 -33.91503,85.90468 -2.70087,15.67684 -2.99379,19.59074 -2.98159,39.83898 0.0102,16.95772 0.12944,19.80925 1.14127,27.29708 4.77738,35.35418 15.22362,64.96261 33.05695,93.69537 35.55326,57.28279 95.75664,96.44016 162.52606,105.70986 l 5.90207,0.8194 0.12585,39.9389 0.12585,39.93891 -1.10953,-0.0638 c -0.61024,-0.0349 -2.76948,-0.25015 -4.79832,-0.47783 z"
     id="path52" />
  <path
     style="fill:#a0a0a0;stroke:none;stroke-width:0.491839"
     d="m 429.37564,670.76814 v -40.03612 l 5.04135,-0.62142 c 25.76794,-3.17628 55.42097,-13.02807 79.72426,-26.48723 C 605.414,553.07651 651.1066,446.95112 625.10156,345.90751 618.89978,321.81026 607.98012,297.15083 594.65239,277.1454 l -3.43034,-5.14908 30.08826,-26.56393 c 16.54855,-14.61017 30.22272,-26.56394 30.38705,-26.56394 0.94397,0 13.58185,19.20096 19.96637,30.33524 22.28,38.85529 35.42421,80.66983 39.86131,126.80739 1.19518,12.42775 1.19156,41.24823 -0.007,53.61048 -4.06023,41.8871 -14.84329,78.94927 -33.50997,115.17618 -24.24889,47.06046 -60.31334,87.02062 -105.01564,116.35951 -11.67694,7.66378 -20.62843,12.73189 -34.12346,19.31987 -33.85422,16.52688 -67.00704,25.87431 -106.4196,30.00495 l -3.07399,0.32221 z m 129.35372,-35.10055 c 0,-0.13526 -0.44266,-0.009 -0.98368,0.28053 -0.54102,0.28954 -0.98368,0.63711 -0.98368,0.77237 0,0.13525 0.44266,0.009 0.98368,-0.28053 0.54102,-0.28955 0.98368,-0.63712 0.98368,-0.77237 z m 7.86942,-5.32335 c 3.11089,-2.18494 8.86541,-6.54619 12.78782,-9.69166 54.74898,-43.90439 91.21063,-107.90053 101.27343,-177.75136 1.43539,-9.96374 2.5785,-23.0866 2.37998,-27.32214 l -0.17171,-3.66373 -0.0977,3.97868 c -0.1339,5.45136 -1.36674,18.16238 -2.59557,26.76127 -10.77632,75.40842 -52.94901,144.30454 -115.29765,188.35795 -4.39732,3.107 -6.14135,4.48788 -4.67248,3.69955 0.40577,-0.21777 3.28303,-2.18362 6.39391,-4.36856 z"
     id="path54" />
  <path
     style="fill:#a0a0a0;stroke:none;stroke-width:0.491839"
     d="m 429.37564,783.26336 v -18.92647 l 1.10664,-0.21852 c 0.60865,-0.1202 3.9839,-0.4642 7.50055,-0.76442 29.57783,-2.52505 64.03399,-10.51247 93.94129,-21.77687 57.48495,-21.65145 109.42322,-58.49326 148.91192,-105.62896 45.93356,-54.82866 74.38058,-121.00521 82.45564,-191.8173 1.68322,-14.76062 2.19557,-24.28681 2.19557,-40.82266 0,-22.09799 -1.38676,-39.20182 -4.84934,-59.80974 -9.25487,-55.08152 -31.55733,-108.37347 -63.86134,-152.5973 -2.52762,-3.4603 -4.74835,-6.53848 -4.93495,-6.8404 -0.20351,-0.32928 5.29458,-5.52965 13.73977,-12.99576 7.74347,-6.84575 14.22262,-12.49501 14.3981,-12.55392 0.74433,-0.24986 15.16497,20.12962 22.11712,31.25629 12.2083,19.53895 24.34663,43.33707 32.65452,64.0217 23.33053,58.08738 32.77498,122.19449 27.17219,184.43972 -9.57881,106.41738 -60.65966,203.83749 -142.85876,272.45665 -53.8145,44.92391 -120.34301,75.38503 -190.09586,87.03838 -12.80422,2.13915 -32.57696,4.466 -37.95062,4.466 h -1.64244 z"
     id="path56" />
  <path
     style="fill:#a0a0a0;stroke:none;stroke-width:0.491839"
     d="M 429.37564,670.92413 V 631.0743 l 1.59848,-0.26361 c 0.87916,-0.14499 3.47976,-0.50252 5.77911,-0.79452 25.0847,-3.18553 56.33865,-14.01526 80.57056,-27.91831 88.74663,-50.91833 133.10695,-154.94901 108.46633,-254.36753 -6.09495,-24.59152 -17.71051,-51.05679 -31.28768,-71.28684 -2.22319,-3.31257 -2.66951,-4.29085 -2.21014,-4.84436 0.31659,-0.38146 12.20528,-10.93238 26.41931,-23.44648 33.23974,-29.26443 32.67666,-28.77377 33.03229,-28.78381 0.7446,-0.021 12.15966,17.2612 18.53523,28.06204 23.65838,40.07961 38.70063,89.51576 41.46455,136.27265 0.70829,11.98195 0.27146,39.38544 -0.77901,48.86906 -3.70011,33.40481 -11.06188,62.15482 -23.22619,90.70558 -25.85061,60.67377 -69.33122,110.53635 -126.17533,144.69502 -13.55705,8.14668 -35.12546,18.41833 -51.59339,24.57061 -22.52832,8.41641 -52.12668,15.25584 -75.42981,17.42991 -1.89358,0.17667 -3.8302,0.42899 -4.30359,0.56073 -0.81462,0.2267 -0.86072,-1.89473 -0.86072,-39.61031 z m 128.84763,-34.46496 c 0.39794,-0.25166 0.59561,-0.58547 0.43928,-0.74181 -0.38745,-0.38745 -1.90055,0.22973 -1.90055,0.77522 0,0.56059 0.5416,0.54821 1.46127,-0.0334 z m 7.93447,-5.48607 c 13.34402,-9.5017 23.88959,-18.4448 35.87335,-30.42215 45.779,-45.75448 74.19526,-106.16268 80.38519,-170.88543 0.65127,-6.80981 0.99168,-18.65365 0.49603,-17.25833 -0.0961,0.27051 -0.41946,3.92241 -0.7186,8.11534 -3.32134,46.55482 -16.67003,88.64224 -40.48057,127.63228 -19.10871,31.29072 -43.19605,57.51151 -73.51588,80.02725 -4.66632,3.46525 -8.48422,6.40889 -8.48422,6.54142 0,0.66813 1.31018,-0.0943 6.4447,-3.75038 z"
     id="path58" />
  <path
     style="fill:#a0a0a0;stroke:none;stroke-width:0.491839"
     d=""
     id="path60" />
  <path
     style="fill:#a0a0a0;stroke:none;stroke-width:0.491839"
     d="M 429.37564,670.90036 V 631.0743 l 1.59848,-0.2601 c 0.87916,-0.14306 4.14374,-0.60865 7.25463,-1.03463 3.11088,-0.42599 9.17772,-1.55234 13.48186,-2.50301 38.46241,-8.49528 73.83108,-26.28577 102.59219,-51.60402 6.40842,-5.64129 19.21561,-18.66368 24.16073,-24.56669 27.30487,-32.59399 45.05476,-71.87687 51.55885,-114.1067 2.93084,-19.02942 3.20693,-43.37377 0.71287,-62.85821 -4.35597,-34.03026 -16.75116,-67.82474 -35.29977,-96.24198 -2.88943,-4.42672 -3.56477,-5.79184 -3.12654,-6.31988 0.30744,-0.37043 12.18864,-10.91233 26.40267,-23.42643 33.23974,-29.26443 32.67666,-28.77377 33.03229,-28.78381 0.74154,-0.0209 13.35482,19.09698 18.97743,28.76404 23.59189,40.56201 38.27446,89.08494 41.02235,135.57065 0.69854,11.81715 0.27697,39.40183 -0.74361,48.65708 -4.46204,40.46415 -14.2755,74.19849 -31.73042,109.07508 -26.25586,52.46172 -66.58727,95.81902 -117.7065,126.5375 -13.41975,8.06417 -35.16177,18.43884 -51.27996,24.46932 -22.24134,8.32141 -49.73954,14.78277 -73.52996,17.27762 -2.84037,0.29786 -5.6623,0.64613 -6.27095,0.77393 l -1.10664,0.23236 z m 128.84763,-34.44119 c 0.39794,-0.25166 0.59561,-0.58547 0.43928,-0.74181 -0.38745,-0.38745 -1.90055,0.22973 -1.90055,0.77522 0,0.56059 0.5416,0.54821 1.46127,-0.0334 z m 6.83192,-4.76245 c 21.23195,-14.63543 43.0098,-35.36558 59.60412,-56.73667 21.74395,-28.00308 38.23176,-60.31991 47.9266,-93.93822 6.14959,-21.32458 9.89185,-43.43382 10.32352,-60.99114 0.21923,-8.9168 0.25933,-9.16871 -1.48783,9.34495 -4.40678,46.69589 -20.52543,91.16921 -47.32786,130.58332 -17.88957,26.30735 -39.17965,48.35364 -65.89648,68.23705 -4.66632,3.47281 -8.48422,6.4164 -8.48422,6.54131 0,0.53805 0.86359,0.0465 5.34215,-3.0406 z"
     id="path62" />
  <path
     style="fill:#a0a0a0;stroke:none;stroke-width:0.491839"
     d="M 429.37564,670.87869 V 631.0743 l 1.59848,-0.25881 c 0.87916,-0.14234 4.03308,-0.60218 7.00871,-1.02187 20.94543,-2.95414 45.26613,-10.61955 66.39829,-20.92745 42.3196,-20.64273 78.0438,-55.00366 100.44888,-96.61562 14.01424,-26.02803 22.58378,-53.34233 26.30964,-83.85859 1.41785,-11.6128 1.53951,-37.58391 0.23003,-49.10565 -4.27898,-37.64938 -17.28144,-73.70097 -37.35428,-103.57126 -1.25801,-1.87203 -2.16929,-3.59464 -2.02506,-3.828 0.3486,-0.56405 55.87576,-49.59266 58.53484,-51.68429 l 1.27969,-1.0066 0.93219,1.1887 c 0.5127,0.65379 2.66362,3.73397 4.77983,6.84486 30.27081,44.499 47.33477,91.07182 53.52135,146.07625 1.23513,10.98143 1.23782,47.99827 0.004,59.0207 -4.54358,40.60011 -14.40931,74.4983 -31.77819,109.18831 -24.06622,48.06606 -60.12739,88.65191 -105.53402,118.77548 -23.14234,15.35305 -52.21504,29.17532 -78.44835,37.29734 -17.94662,5.5564 -37.86808,9.75114 -56.3156,11.85804 -3.78716,0.43253 -7.4944,0.88785 -8.2383,1.01183 l -1.35256,0.22542 z m 128.84763,-34.41952 c 0.39794,-0.25166 0.59561,-0.58547 0.43928,-0.74181 -0.38745,-0.38745 -1.90055,0.22973 -1.90055,0.77522 0,0.56059 0.5416,0.54821 1.46127,-0.0334 z m 5.08259,-3.54684 c 22.73566,-15.31205 47.26494,-38.93473 64.63284,-62.24402 29.71734,-39.88335 48.20324,-86.49792 53.9843,-136.12836 0.40962,-3.51665 0.84542,-9.60316 0.96843,-13.52558 0.2543,-8.10908 -0.0821,-6.22014 -1.44533,8.11535 -6.59597,69.36287 -38.66726,133.23193 -90.7865,180.79876 -6.25002,5.7041 -14.40672,12.33589 -23.44602,19.06272 -4.1253,3.06995 -7.50054,5.66982 -7.50054,5.77748 0,0.4525 0.70699,0.0872 3.59282,-1.85635 z"
     id="path64" />
  <path
     style="fill:#a0a0a0;stroke:none;stroke-width:0.491839"
     d=""
     id="path66" />
  <path
     style="fill:#a0a0a0;stroke:none;stroke-width:0.491839"
     d="m 557.9755,234.08395 c -4.25899,-4.48831 -18.19463,-15.40215 -28.11767,-22.02063 -28.03376,-18.698 -63.57128,-32.12105 -95.44084,-36.04944 l -5.04135,-0.62142 v -40.2729 -40.272893 l 3.31991,0.329351 c 52.19858,5.178342 101.82273,23.077132 144.5667,52.143352 13.29521,9.04085 26.37313,19.47268 37.09887,29.59259 3.08122,2.90719 5.6624,5.41745 5.73595,5.57835 0.1743,0.38132 -59.23085,52.81166 -60.04289,52.9932 -0.3406,0.0761 -1.27601,-0.55366 -2.07868,-1.39956 z"
     id="path68" />
  <path
     style="fill:#a0a0a0;stroke:none;stroke-width:0.491839"
     d="m 216.71009,209.07661 -29.89152,-26.35835 4.34375,-4.12661 c 15.29513,-14.5305 34.91684,-29.44127 53.28177,-40.48941 36.91987,-22.21061 80.05616,-37.06653 121.73021,-41.92327 3.51665,-0.409835 7.44651,-0.867441 8.73302,-1.016903 l 2.33912,-0.271749 -0.12584,40.225182 -0.12584,40.22518 -1.47552,0.13988 c -0.81153,0.0769 -5.50013,0.80224 -10.4191,1.61181 -41.55373,6.83886 -81.30139,25.68045 -113.12611,53.62517 l -5.37242,4.71742 z"
     id="path70" />
  <path
     style="fill:#a0a0a0;stroke:none;stroke-width:0.491839"
     d="m 132.63189,134.85176 -14.67395,-13.00303 2.37797,-2.43524 c 3.23196,-3.30979 17.15537,-16.16048 22.29746,-20.579567 57.29924,-49.242718 129.25977,-81.770426 204.43331,-92.408259 8.09278,-1.1452126 18.73241,-2.3103801 25.37857,-2.7792588 l 4.79543,-0.3383121 V 22.780842 42.253591 l -1.59848,0.234057 c -0.87916,0.128732 -5.13972,0.589931 -9.4679,1.024888 -63.24986,6.356237 -125.87066,30.645375 -177.30804,68.773624 -12.42886,9.21296 -21.78688,17.05956 -34.17376,28.65432 l -7.38666,6.91431 z"
     id="path72" />
  <path
     style="fill:#a0a0a0;stroke:none;stroke-width:0.491839"
     d="m 658.30335,146.02161 c -0.79864,-0.85018 -4.55065,-4.42671 -8.33782,-7.94786 C 603.62401,94.987342 545.72374,64.426783 483.96979,50.458915 469.60845,47.210583 453.26275,44.54139 440.1961,43.310834 c -3.11088,-0.292969 -6.81812,-0.656596 -8.2383,-0.808061 l -2.58216,-0.275391 V 22.835124 3.4428649 h 1.39652 c 2.39113,0 16.68553,1.4341919 24.67096,2.4752979 84.6208,11.0324982 165.69332,50.2157092 225.95283,109.2053972 l 7.33029,7.17583 -14.1429,12.50322 c -7.7786,6.87678 -14.29703,12.56208 -14.48542,12.63401 -0.18837,0.0719 -0.99594,-0.56483 -1.79457,-1.41501 z"
     id="path74" />
  <path
     style="fill:#a0a0a0;stroke:none;stroke-width:0.491839"
     d="m 467.90965,307.93789 c -9.56557,-6.62815 -23.2571,-12.94769 -34.23042,-15.79959 l -4.30359,-1.11848 v -18.36947 c 0,-12.60657 0.16349,-18.36948 0.52112,-18.36948 1.1789,0 11.90593,2.59711 17.18411,4.16042 11.6081,3.43814 25.83548,9.90195 36.88892,16.75944 4.6397,2.87843 15.54226,10.84581 16.57244,12.1108 0.42312,0.51958 -2.30984,3.16833 -12.82142,12.42637 -7.34755,6.47132 -13.57662,11.81892 -13.84237,11.88355 -0.26575,0.0646 -2.95171,-1.59298 -5.96879,-3.68356 z"
     id="path76" />
  <path
     style="fill:#a0a0a0;stroke:none;stroke-width:0.491839"
     d="m 429.49282,534.33501 0.12874,-18.98412 5.7798,-1.66128 c 38.10817,-10.95336 67.69916,-40.69547 78.74746,-79.14966 3.28392,-11.42985 3.99913,-17.08591 3.98034,-31.47771 -0.0129,-9.88976 -0.21096,-13.90246 -0.87391,-17.70621 -1.96591,-11.2796 -5.21115,-21.70582 -9.6687,-31.06327 l -2.84839,-5.97947 13.69783,-12.09562 c 7.53382,-6.6526 13.79728,-12.09563 13.91882,-12.09563 0.12154,0 1.20827,1.71529 2.41496,3.81176 10.16198,17.65506 16.64412,37.06051 19.34545,57.91407 1.14082,8.80682 1.14429,27.20312 0.007,35.90426 -2.43558,18.63031 -6.64647,32.6134 -14.81132,49.18392 -4.88895,9.92209 -11.26758,20.04051 -17.76356,28.17832 -5.06775,6.34857 -16.9019,18.13702 -23.31399,23.22393 -18.72974,14.85888 -40.22681,25.06949 -63.0698,29.95669 -2.63277,0.56328 -5.01464,1.02414 -5.29305,1.02414 -0.34051,0 -0.46406,-6.21361 -0.37746,-18.98412 z"
     id="path78" />
  <path
     style="fill:#a0a0a0;stroke:none;stroke-width:0.491839"
     d="m 368.97766,551.82592 c -26.87083,-6.31309 -51.37491,-19.72782 -71.2706,-39.017 -26.89361,-26.07377 -42.78025,-59.79845 -45.86067,-97.35453 -2.1783,-26.5576 3.29311,-54.67124 15.33402,-78.79045 2.40346,-4.81437 6.41399,-12.17431 7.06503,-12.9654 0.12293,-0.14938 23.09961,19.92082 26.70861,23.33004 l 1.17804,1.11283 -2.9704,6.55725 c -7.31081,16.13882 -10.54693,30.8028 -10.56458,47.87174 -0.0102,9.84498 0.57404,15.82412 2.40289,24.59196 3.55005,17.01966 12.12912,34.95691 23.32985,48.77843 6.91222,8.52956 16.95416,17.52526 26.51473,23.75223 9.11738,5.93832 24.71005,12.80703 33.56803,14.78703 l 2.82807,0.63215 v 19.10346 19.10347 l -1.10664,-0.036 c -0.60865,-0.0198 -3.82902,-0.67554 -7.15638,-1.45727 z"
     id="path81" />
  <path
     style="fill:#a0a0a0;stroke:none;stroke-width:0.491839"
     d="m 319.57389,299.89896 c -7.4741,-6.5599 -13.60291,-12.08367 -13.61958,-12.27503 -0.0541,-0.62098 6.93098,-5.93741 13.81149,-10.51209 16.18444,-10.76061 37.46629,-19.38887 55.63048,-22.55414 l 1.8444,-0.3214 v 18.4473 18.4473 l -2.09032,0.5081 c -12.15272,2.954 -28.76012,10.67148 -38.68212,17.97563 -1.65221,1.21629 -3.07175,2.21143 -3.15454,2.21143 -0.0828,0 -6.26571,-5.36719 -13.73981,-11.9271 z"
     id="path83" />
  <path
     style="fill:#a0a0a0;stroke:none;stroke-width:0.491839"
     d="m 429.37564,670.8968 v -39.8225 l 1.59848,-0.25331 c 0.87916,-0.13931 4.03308,-0.60996 7.00871,-1.04587 35.4285,-5.19013 72.1275,-20.47023 101.58912,-42.29794 17.09326,-12.66416 35.39816,-30.93322 47.53078,-47.43771 22.07553,-30.03024 36.5883,-64.39056 42.46308,-100.53527 3.30984,-20.36382 3.77168,-45.36092 1.19854,-64.8702 -4.85334,-36.79756 -16.82053,-68.51821 -38.10819,-101.01092 l -1.02266,-1.56095 10.72205,-9.52538 c 11.56514,-10.27437 47.0807,-41.49019 48.53651,-42.66038 1.11011,-0.89231 0.98862,-1.03805 8.38465,10.05846 29.44675,44.17996 45.65431,89.07229 51.76152,143.37114 1.23651,10.99374 1.23792,48.0055 0.002,59.0207 -1.2457,11.10461 -2.63726,20.25363 -4.56035,29.98288 -14.80126,74.88081 -56.22017,141.05912 -116.8488,186.69828 -16.24041,12.22523 -29.22838,20.2879 -47.13288,29.25914 -33.69789,16.88467 -64.36578,26.22918 -101.5648,30.94679 -4.32818,0.5489 -8.69941,1.1122 -9.71382,1.25178 l -1.8444,0.25375 z m 128.84763,-34.43763 c 0.39794,-0.25166 0.59561,-0.58547 0.43928,-0.74181 -0.38745,-0.38745 -1.90055,0.22973 -1.90055,0.77522 0,0.56059 0.5416,0.54821 1.46127,-0.0334 z m 5.08259,-3.55107 c 7.7631,-5.23909 19.59731,-14.5936 27.57356,-21.79587 39.48861,-35.65687 67.51042,-80.58643 82.17923,-131.76438 5.19718,-18.13243 9.11152,-41.08556 9.82216,-57.59572 0.32627,-7.58009 -0.38978,-4.5677 -1.1691,4.91839 -6.01199,73.17899 -42.31105,142.75456 -99.37407,190.47344 -3.38139,2.82769 -9.85523,7.90617 -14.3863,11.28551 -4.53107,3.37934 -8.2383,6.23216 -8.2383,6.33961 0,0.45257 0.70839,0.0856 3.59282,-1.86098 z"
     id="path85" />
  <path
     style="fill:#a0a0a0;stroke:none;stroke-width:0.491839"
     d="m 429.37564,670.8968 v -39.8225 l 1.59848,-0.27029 c 0.87916,-0.14865 4.03308,-0.61413 7.00871,-1.03438 21.43167,-3.02687 46.53773,-11.05384 67.7112,-21.64879 9.69378,-4.85065 13.79137,-7.19459 22.54129,-12.89427 43.49894,-28.33514 75.82315,-70.16454 92.24634,-119.37212 7.56413,-22.66385 11.04975,-42.34952 11.82317,-66.77345 1.46517,-46.26902 -11.58441,-92 -37.85515,-132.65968 -2.16273,-3.34729 -2.58157,-4.31238 -2.11685,-4.87761 0.58513,-0.71169 22.11671,-19.77893 46.05213,-40.78134 7.15626,-6.27934 13.24277,-11.34256 13.52558,-11.25159 0.75659,0.24337 11.12789,15.79785 16.34589,24.51495 21.04376,35.15537 34.59141,72.9551 40.69392,113.54138 2.7389,18.21583 2.94432,21.37273 2.94432,45.24921 0,23.42296 -0.20344,26.73912 -2.68555,43.77369 -11.83913,81.25175 -54.77487,153.81795 -119.98573,202.78934 -15.14758,11.37537 -29.43494,20.22521 -46.49104,28.79735 -33.55218,16.86282 -64.68937,26.35759 -101.79849,31.04174 -4.32818,0.54633 -8.69941,1.10752 -9.71382,1.2471 l -1.8444,0.25375 z m 128.86188,-34.70276 c 0.66462,-0.80082 0.50564,-0.90093 -0.69753,-0.43922 -0.4279,0.16419 -0.77799,0.49619 -0.77799,0.73776 0,0.68032 0.79695,0.51908 1.47552,-0.29854 z m 8.11535,-5.47118 c 43.63438,-31.26044 76.86827,-73.4442 96.93824,-123.04368 11.02492,-27.24618 17.96067,-57.55996 19.60373,-85.68113 0.16334,-2.79561 0.10266,-4.27734 -0.15108,-3.68879 -0.23325,0.54102 -0.58074,3.19695 -0.77221,5.90207 -4.10596,58.00994 -28.26543,115.83949 -67.29332,161.07735 -14.32465,16.60392 -30.99022,31.83695 -49.67792,45.40766 -2.908,2.11174 -5.28727,3.93596 -5.28727,4.05381 0,0.59518 1.22328,-0.14678 6.63983,-4.02729 z"
     id="path87" />
  <path
     style="fill:#a0a0a0;stroke:none;stroke-width:0.491839"
     d="m 429.37564,670.95101 v -39.84313 l 1.35256,-0.26449 c 0.7439,-0.14547 3.12318,-0.5079 5.28727,-0.8054 22.63918,-3.11222 48.26237,-11.19153 69.9505,-22.05629 22.34341,-11.19301 40.65618,-24.40722 58.71103,-42.36493 18.9748,-18.87272 32.1588,-37.23848 43.9585,-61.23565 12.56106,-25.54558 19.99244,-51.39288 22.62545,-78.69427 5.02989,-52.15434 -7.17447,-102.70691 -35.50307,-147.05994 l -4.08384,-6.39391 2.84828,-2.70511 c 3.15186,-2.99344 53.66298,-47.5057 55.80734,-49.17949 0.7413,-0.57862 1.58047,-0.90825 1.86483,-0.7325 0.7097,0.43862 11.87446,17.35108 16.22798,24.58227 21.12,35.08028 35.01673,74.51133 40.99478,116.31998 2.27847,15.93488 2.51085,19.8495 2.51085,42.29817 0,22.44343 -0.23175,26.3499 -2.50933,42.29817 -2.93097,20.52352 -7.13679,38.1724 -13.68849,57.44101 -27.02961,79.49431 -85.82941,144.83219 -162.08472,180.10727 -31.91601,14.76407 -62.0366,23.13077 -98.36785,27.32395 -1.2173,0.1405 -3.04326,0.37964 -4.05767,0.53143 l -1.8444,0.27599 z m 128.86188,-34.75697 c 0.66462,-0.80082 0.50564,-0.90093 -0.69753,-0.43922 -0.4279,0.16419 -0.77799,0.49619 -0.77799,0.73776 0,0.68032 0.79695,0.51908 1.47552,-0.29854 z m 6.88575,-4.59558 c 19.69595,-13.76754 41.38256,-34.14549 56.87344,-53.44145 31.89948,-39.73505 52.61784,-88.24395 59.17854,-138.55751 1.03506,-7.93782 2.11958,-21.07812 1.76863,-21.42908 -0.30524,-0.30524 -0.62952,2.13753 -1.50191,11.31379 -7.22346,75.9804 -45.58865,145.8534 -106.236,193.4834 -2.4346,1.91204 -6.75049,5.19717 -9.59086,7.30026 -2.84038,2.10311 -5.38564,4.04729 -5.65615,4.3204 -0.90208,0.91076 1.92849,-0.72796 5.16431,-2.98981 z"
     id="path89" />
  <path
     style="fill:#a0a0a0;stroke:none;stroke-width:0.0434729"
     d=""
     id="path91" />
  <path
     style="fill:#a0a0a0;stroke:none;stroke-width:0.0434729"
     d=""
     id="path93" />
  <path
     style="fill:#a0a0a0;stroke:none;stroke-width:0.0434729"
     d="m 590.85282,610.23325 c 0.0833,-0.0804 0.73832,-0.6835 1.45562,-1.34029 4.62785,-4.23739 9.91283,-9.45539 14.36872,-14.18662 20.41668,-21.67824 37.35248,-46.5979 50.00389,-73.57672 3.67505,-7.83693 7.09908,-16.11442 9.94877,-24.0508 l 0.49541,-1.37969 0.1384,-5.7e-4 0.13842,-5.7e-4 -0.14464,0.42386 c -0.57049,1.67183 -2.11211,5.81336 -3.17575,8.53155 -3.15803,8.07051 -6.37575,15.30243 -10.30957,23.17104 -1.88486,3.77017 -2.95064,5.815 -4.70158,9.02061 -14.93697,27.3464 -34.34981,52.02067 -57.401,72.95833 -0.58239,0.52899 -0.64779,0.57601 -0.80114,0.57601 h -0.16698 z"
     id="path95" />
  <path
     style="fill:#a0a0a0;stroke:none;stroke-width:0.0434729"
     d="m 591.48264,610.10769 c 5.0381,-4.51338 11.44113,-10.81291 16.62818,-16.35938 16.60838,-17.75921 30.86097,-37.67874 42.33221,-59.16385 1.74827,-3.27442 4.1425,-8.0114 5.65796,-11.19426 3.45442,-7.2552 6.54284,-14.50525 9.31494,-21.86684 0.55172,-1.46515 1.66075,-4.50187 1.96075,-5.3689 0.0956,-0.2764 0.17537,-0.43969 0.21891,-0.44835 0.0783,-0.0156 0.0408,0.0959 -0.94862,2.81762 -4.79362,13.18653 -10.71358,26.2781 -17.46636,38.62563 -10.87016,19.87621 -24.02401,38.26627 -39.24166,54.86275 -4.43974,4.84202 -10.68645,11.0892 -16.19624,16.19747 -2.35653,2.1848 -2.33722,2.16774 -2.45528,2.16882 -0.0939,8.7e-4 -0.0683,-0.0347 0.19521,-0.27071 z"
     id="path97" />
  <path
     style="fill:#a0a0a0;stroke:none;stroke-width:0.0434729"
     d="m 591.39551,610.21979 c 0.69259,-0.60208 3.29843,-3.00994 4.67307,-4.31803 7.29384,-6.94069 13.83846,-13.8166 20.0894,-21.10628 12.05128,-14.05392 22.84715,-29.54318 31.83864,-45.68016 0.2102,-0.37724 0.39153,-0.67653 0.40296,-0.6651 0.0249,0.0249 -0.11784,0.28769 -1.11191,2.04655 -10.40539,18.41092 -22.64702,35.33244 -36.81094,50.88353 -3.95593,4.34335 -9.6638,10.11994 -14.79969,14.97785 -1.3824,1.30758 -3.84635,3.59112 -4.12262,3.82077 -0.21403,0.17791 -0.35963,0.21536 -0.15891,0.0409 z"
     id="path99" />
  <path
     style="fill:#a0a0a0;stroke:none;stroke-width:0.0434729"
     d=""
     id="path101" />
  <path
     style="fill:#a0a0a0;stroke:none;stroke-width:0.0434729"
     d=""
     id="path103" />
  <path
     style="fill:#a0a0a0;stroke:none;stroke-width:0.0434729"
     d=""
     id="path105" />
  <path
     style="fill:#a0a0a0;stroke:none;stroke-width:0.0434729"
     d=""
     id="path107" />
  <path
     style="fill:#a0a0a0;stroke:none;stroke-width:0.0434729"
     d=""
     id="path109" />
  <path
     style="fill:#a0a0a0;stroke:none;stroke-width:0.00390625"
     d="m 626.56008,571.70179 c 0,-9e-4 0.0636,-0.0857 0.1413,-0.18848 2.47641,-3.27441 4.82213,-6.52184 7.20236,-9.97102 l 0.0991,-0.14356 h 0.0484 c 0.0376,0 0.0478,10e-4 0.0456,0.005 -0.008,0.0136 -0.34954,0.50828 -0.62785,0.90918 -2.0744,2.98803 -4.29373,6.05363 -6.44628,8.90437 -0.12657,0.16763 -0.26088,0.34556 -0.29848,0.39542 l -0.0684,0.0906 -0.0479,9e-5 c -0.0263,6e-5 -0.0479,-6.3e-4 -0.0479,-0.002 z"
     id="path111" />
  <path
     style="fill:#a0a0a0;stroke:none;stroke-width:0.00390625"
     d="m 626.58644,571.70055 c -0.0102,-8e-4 -0.0185,-0.003 -0.0185,-0.004 4e-5,-10e-4 0.0671,-0.0915 0.14909,-0.19998 2.47013,-3.2698 4.70579,-6.36269 7.05899,-9.76563 l 0.22826,-0.33007 0.023,-0.001 c 0.0126,-5.8e-4 0.0328,3e-4 0.0448,0.002 l 0.0218,0.003 -0.043,0.0625 c -0.62285,0.90644 -1.56029,2.24638 -2.29696,3.28321 -1.60793,2.26306 -3.1671,4.39129 -4.85715,6.62988 l -0.24403,0.32324 -0.0239,-7e-4 c -0.0131,-3.9e-4 -0.0323,-10e-4 -0.0425,-0.002 z"
     id="path113" />
  <path
     style="fill:#a0a0a0;stroke:none;stroke-width:0.00390625"
     d="m 626.67026,571.69073 c 0.005,-0.007 0.10857,-0.14366 0.22958,-0.30372 2.35824,-3.11921 4.79617,-6.49407 7.00791,-9.70117 0.10816,-0.15683 0.19708,-0.28573 0.19759,-0.28645 5.2e-4,-7.1e-4 0.005,-7.1e-4 0.009,0 0.009,10e-4 0.0384,-0.0422 -0.35635,0.52864 -2.01889,2.9195 -4.11105,5.82353 -6.25598,8.68359 -0.24325,0.32436 -0.6517,0.86649 -0.79386,1.0537 -0.0222,0.0293 -0.031,0.0381 -0.0382,0.0381 h -0.009 l 0.01,-0.0127 z"
     id="path115" />
  <path
     style="fill:#a0a0a0;stroke:none;stroke-width:0.00390625"
     d="m 626.89992,571.70138 c 0,-10e-4 0.1307,-0.17559 0.29045,-0.3877 2.3634,-3.13808 4.80333,-6.52808 6.9908,-9.7129 l 0.13867,-0.2019 1.77832,-7e-5 1.77832,-8e-5 9.8e-4,5.15235 9.8e-4,5.15234 h -5.48926 c -3.01909,0 -5.48926,-9.2e-4 -5.48926,-0.002 z"
     id="path117" />
  <path
     style="fill:#a0a0a0;stroke:none;stroke-width:0.00390625"
     d="m 626.86737,571.6939 c 0.004,-0.005 0.15054,-0.19992 0.32578,-0.43262 2.33066,-3.09491 4.66045,-6.33055 6.8778,-9.552 l 0.21241,-0.30859 0.0158,-0.001 0.0157,-10e-4 -0.008,0.011 c -0.004,0.006 -0.0759,0.1103 -0.15934,0.23169 -2.18496,3.17932 -4.57595,6.50111 -6.93851,9.63965 l -0.3183,0.42285 h -0.0154 -0.0154 z"
     id="path119" />
  <path
     style="fill:#a0a0a0;stroke:none;stroke-width:0.00390625"
     d="m 626.10174,571.69887 c 0.0169,-0.0215 0.42334,-0.5606 0.66357,-0.88021 2.28257,-3.03686 4.5314,-6.15948 6.69891,-9.30176 0.0676,-0.098 0.0831,-0.11817 0.0906,-0.11817 0.005,0 0.009,7.5e-4 0.009,0.002 0,0.008 -1.01878,1.47295 -1.55997,2.24249 -1.82968,2.60171 -3.83168,5.34701 -5.69866,7.81446 -0.16347,0.21604 -0.18605,0.24429 -0.19622,0.24545 -0.009,10e-4 -0.0107,2.3e-4 -0.007,-0.004 z"
     id="path121" />
  <path
     style="fill:#a0a0a0;stroke:none;stroke-width:0.00390625"
     d="m 620.34914,566.55108 v -5.15235 h 6.59549 6.5955 l -0.0708,0.10254 c -2.35297,3.40985 -4.64125,6.57792 -7.20451,9.97443 l -0.17158,0.22736 -2.87207,1.8e-4 -2.87207,1.8e-4 z"
     id="path123" />
  <path
     style="fill:#a0a0a0;stroke:none;stroke-width:0.00390625"
     d=""
     id="path125" />
  <path
     style="fill:#a0a0a0;stroke:none;stroke-width:0.00390625"
     d="m 626.52727,571.6988 c 0.002,-0.003 0.11742,-0.15632 0.25709,-0.34108 1.82518,-2.41447 3.75355,-5.05854 5.52828,-7.58008 0.5002,-0.7107 1.31361,-1.87879 1.61094,-2.31338 0.0446,-0.0652 0.0447,-0.0653 0.0596,-0.0654 l 0.0149,-10e-5 -0.0212,0.0303 c -0.0117,0.0167 -0.0982,0.14189 -0.19239,0.27832 -1.80662,2.61752 -3.69282,5.25141 -5.59754,7.8164 -0.42704,0.57507 -1.07111,1.43474 -1.47941,1.97461 -0.15232,0.20142 -0.15374,0.20314 -0.16854,0.20436 -0.0115,9.6e-4 -0.0142,7e-5 -0.0118,-0.004 z"
     id="path127" />
  <path
     style="fill:#a0a0a0;stroke:none;stroke-width:0.00390625"
     d="m 626.52727,571.6988 c 0.002,-0.003 0.11742,-0.15632 0.25709,-0.34108 1.82518,-2.41447 3.75355,-5.05854 5.52828,-7.58008 0.5002,-0.7107 1.31361,-1.87879 1.61094,-2.31338 0.0446,-0.0652 0.0447,-0.0653 0.0596,-0.0654 l 0.0149,-10e-5 -0.0212,0.0303 c -0.0117,0.0167 -0.0982,0.14189 -0.19239,0.27832 -1.80662,2.61752 -3.69282,5.25141 -5.59754,7.8164 -0.42704,0.57507 -1.07111,1.43474 -1.47941,1.97461 -0.15232,0.20142 -0.15374,0.20314 -0.16854,0.20436 -0.0115,9.6e-4 -0.0142,7e-5 -0.0118,-0.004 z"
     id="path129" />
  <path
     style="fill:#a0a0a0;stroke:none;stroke-width:0.00390625"
     d="m 626.10695,571.69762 c 0,-10e-4 0.0489,-0.0665 0.10863,-0.14551 2.4198,-3.19921 4.78353,-6.46656 7.06697,-9.76861 0.11886,-0.17188 0.22746,-0.32788 0.24135,-0.34668 0.0294,-0.0399 0.0456,-0.0478 0.02,-0.01 -0.1043,0.1547 -0.8481,1.22447 -1.30164,1.87207 -1.78564,2.54967 -3.88419,5.43549 -5.74653,7.90235 -0.33703,0.44644 -0.37693,0.49804 -0.38503,0.49804 -0.002,0 -0.004,-8.5e-4 -0.004,-0.002 z"
     id="path131" />
  <path
     style="fill:#a0a0a0;stroke:none;stroke-width:0.00390625"
     d="m 626.10695,571.69762 c 0,-10e-4 0.0489,-0.0665 0.10863,-0.14551 2.4198,-3.19921 4.78353,-6.46656 7.06697,-9.76861 0.11886,-0.17188 0.22746,-0.32788 0.24135,-0.34668 0.0294,-0.0399 0.0456,-0.0478 0.02,-0.01 -0.1043,0.1547 -0.8481,1.22447 -1.30164,1.87207 -1.78564,2.54967 -3.88419,5.43549 -5.74653,7.90235 -0.33703,0.44644 -0.37693,0.49804 -0.38503,0.49804 -0.002,0 -0.004,-8.5e-4 -0.004,-0.002 z"
     id="path133" />
  <path
     style="fill:#a0a0a0;stroke:none;stroke-width:0.00390625"
     d="m 626.10695,571.69762 c 0,-10e-4 0.0489,-0.0665 0.10863,-0.14551 2.4198,-3.19921 4.78353,-6.46656 7.06697,-9.76861 0.11886,-0.17188 0.22746,-0.32788 0.24135,-0.34668 0.0294,-0.0399 0.0456,-0.0478 0.02,-0.01 -0.1043,0.1547 -0.8481,1.22447 -1.30164,1.87207 -1.78564,2.54967 -3.88419,5.43549 -5.74653,7.90235 -0.33703,0.44644 -0.37693,0.49804 -0.38503,0.49804 -0.002,0 -0.004,-8.5e-4 -0.004,-0.002 z"
     id="path135" />
  <path
     style="fill:#a0a0a0;stroke:none;stroke-width:0.00390625"
     d="m 626.10695,571.69762 c 0,-10e-4 0.0489,-0.0665 0.10863,-0.14551 2.4198,-3.19921 4.78353,-6.46656 7.06697,-9.76861 0.11886,-0.17188 0.22746,-0.32788 0.24135,-0.34668 0.0294,-0.0399 0.0456,-0.0478 0.02,-0.01 -0.1043,0.1547 -0.8481,1.22447 -1.30164,1.87207 -1.78564,2.54967 -3.88419,5.43549 -5.74653,7.90235 -0.33703,0.44644 -0.37693,0.49804 -0.38503,0.49804 -0.002,0 -0.004,-8.5e-4 -0.004,-0.002 z"
     id="path137" />
  <path
     style="fill:#a0a0a0;stroke:none;stroke-width:0.00390625"
     d="m 626.10695,571.69762 c 0,-10e-4 0.0489,-0.0665 0.10863,-0.14551 2.4198,-3.19921 4.78353,-6.46656 7.06697,-9.76861 0.11886,-0.17188 0.22746,-0.32788 0.24135,-0.34668 0.0294,-0.0399 0.0456,-0.0478 0.02,-0.01 -0.1043,0.1547 -0.8481,1.22447 -1.30164,1.87207 -1.78564,2.54967 -3.88419,5.43549 -5.74653,7.90235 -0.33703,0.44644 -0.37693,0.49804 -0.38503,0.49804 -0.002,0 -0.004,-8.5e-4 -0.004,-0.002 z"
     id="path139" />
  <path
     style="fill:#a0a0a0;stroke:none;stroke-width:0.00390625"
     d="m 626.52727,571.6988 c 0.002,-0.003 0.11742,-0.15632 0.25709,-0.34108 1.82518,-2.41447 3.75355,-5.05854 5.52828,-7.58008 0.5002,-0.7107 1.31361,-1.87879 1.61094,-2.31338 0.0446,-0.0652 0.0447,-0.0653 0.0596,-0.0654 l 0.0149,-10e-5 -0.0212,0.0303 c -0.0117,0.0167 -0.0982,0.14189 -0.19239,0.27832 -1.80662,2.61752 -3.69282,5.25141 -5.59754,7.8164 -0.42704,0.57507 -1.07111,1.43474 -1.47941,1.97461 -0.15232,0.20142 -0.15374,0.20314 -0.16854,0.20436 -0.0115,9.6e-4 -0.0142,7e-5 -0.0118,-0.004 z"
     id="path141" />
  <path
     style="fill:#a0a0a0;stroke:none;stroke-width:0.00390625"
     d="m 626.52727,571.6988 c 0.002,-0.003 0.11742,-0.15632 0.25709,-0.34108 1.82518,-2.41447 3.75355,-5.05854 5.52828,-7.58008 0.5002,-0.7107 1.31361,-1.87879 1.61094,-2.31338 0.0446,-0.0652 0.0447,-0.0653 0.0596,-0.0654 l 0.0149,-10e-5 -0.0212,0.0303 c -0.0117,0.0167 -0.0982,0.14189 -0.19239,0.27832 -1.80662,2.61752 -3.69282,5.25141 -5.59754,7.8164 -0.42704,0.57507 -1.07111,1.43474 -1.47941,1.97461 -0.15232,0.20142 -0.15374,0.20314 -0.16854,0.20436 -0.0115,9.6e-4 -0.0142,7e-5 -0.0118,-0.004 z"
     id="path143" />
  <path
     style="fill:#a0a0a0;stroke:none;stroke-width:0.00390625"
     d=""
     id="path145" />
  <path
     style="fill:#a0a0a0;stroke:none;stroke-width:0.00390625"
     d=""
     id="path147" />
  <path
     style="fill:#a0a0a0;stroke:none;stroke-width:0.00390625"
     d="m 626.58449,571.70056 c -0.009,-8.2e-4 -0.0166,-0.003 -0.0166,-0.004 0,-0.003 0.0676,-0.0927 0.31258,-0.41714 0.84891,-1.12422 1.89528,-2.5345 2.71278,-3.65625 0.0642,-0.0881 0.16093,-0.2208 0.21497,-0.29492 0.13549,-0.18582 0.45996,-0.63388 0.64779,-0.89453 0.0859,-0.11924 0.18347,-0.25459 0.21676,-0.30078 0.0333,-0.0462 0.0687,-0.0954 0.0787,-0.10938 0.46204,-0.64453 0.74762,-1.04474 1.03129,-1.44531 0.3156,-0.44563 0.34742,-0.49068 0.48574,-0.6875 0.0279,-0.0397 0.0985,-0.13994 0.15681,-0.22266 0.30847,-0.43756 0.88412,-1.26312 1.29108,-1.85156 0.10178,-0.14717 0.2082,-0.30097 0.23649,-0.34179 0.0584,-0.0843 0.0507,-0.0791 0.10988,-0.0742 l 0.032,0.003 -0.0378,0.0553 c -0.0365,0.0534 -0.11096,0.16126 -0.26252,0.38026 -0.0398,0.0574 -0.0826,0.11944 -0.0952,0.13779 -0.0126,0.0184 -0.0321,0.0466 -0.0434,0.0627 -0.0112,0.0161 -0.0807,0.11631 -0.15446,0.22265 -0.0737,0.10635 -0.15367,0.22149 -0.17766,0.25586 -0.024,0.0344 -0.0785,0.1126 -0.12114,0.17383 -0.11403,0.16371 -0.5685,0.81329 -0.63404,0.90625 -0.0311,0.0441 -0.075,0.10645 -0.0977,0.13867 -0.0227,0.0322 -0.0574,0.0815 -0.0771,0.10938 -0.0197,0.0279 -0.0823,0.1167 -0.13913,0.19726 -0.0568,0.0806 -0.13999,0.19834 -0.18486,0.26172 -0.0449,0.0634 -0.11516,0.1627 -0.15621,0.22071 -0.16659,0.23536 -0.36834,0.51887 -0.59904,0.84179 -0.194,0.27155 -0.29578,0.41362 -0.41838,0.58399 -0.0294,0.0408 -0.0944,0.13135 -0.14453,0.20117 -0.0501,0.0698 -0.10262,0.14277 -0.11667,0.16211 -0.0393,0.0541 -0.11325,0.1565 -0.2468,0.3418 -0.10871,0.15083 -0.51411,0.70908 -0.68293,0.94043 -0.14078,0.19291 -0.22458,0.30762 -0.26982,0.36937 -0.0249,0.034 -0.054,0.0738 -0.0648,0.0886 -0.0107,0.0148 -0.045,0.0616 -0.0762,0.10404 -0.0312,0.0425 -0.0892,0.12156 -0.12891,0.17577 -0.24524,0.33446 -0.59019,0.80159 -0.89965,1.21828 -0.0622,0.0838 -0.14761,0.19878 -0.18975,0.25553 -0.10549,0.14209 -1.01339,1.35267 -1.14425,1.52572 -0.0585,0.0773 -0.14504,0.19204 -0.19234,0.25488 l -0.086,0.11426 -0.0262,-6.8e-4 c -0.0144,-3.8e-4 -0.0337,-10e-4 -0.0428,-0.002 z"
     id="path149" />
  <path
     style="fill:#a0a0a0;stroke:none;stroke-width:0.00390625"
     d="m 626.13086,571.69577 c 0.003,-0.004 0.11017,-0.14621 0.23824,-0.31547 2.35326,-3.11014 4.856,-6.57735 7.1599,-9.91907 l 0.0417,-0.0605 0.19605,-10e-4 0.19605,-10e-4 -0.0127,0.0186 c -0.0439,0.0644 -0.2475,0.35949 -0.40907,0.59277 -1.80684,2.60872 -3.6155,5.12816 -5.53077,7.70428 -0.27411,0.3687 -1.08083,1.44438 -1.33209,1.77623 l -0.15972,0.21094 -0.19652,10e-4 c -0.19508,10e-4 -0.19649,9.6e-4 -0.19115,-0.007 z"
     id="path151" />
  <path
     style="fill:#a0a0a0;stroke:none;stroke-width:0.00390625"
     d="m 626.58449,571.70056 c -0.009,-8.2e-4 -0.0166,-0.003 -0.0166,-0.004 0,-0.003 0.0676,-0.0927 0.31258,-0.41714 0.84891,-1.12422 1.89528,-2.5345 2.71278,-3.65625 0.0642,-0.0881 0.16093,-0.2208 0.21497,-0.29492 0.13549,-0.18582 0.45996,-0.63388 0.64779,-0.89453 0.0859,-0.11924 0.18347,-0.25459 0.21676,-0.30078 0.0333,-0.0462 0.0687,-0.0954 0.0787,-0.10938 0.46204,-0.64453 0.74762,-1.04474 1.03129,-1.44531 0.3156,-0.44563 0.34742,-0.49068 0.48574,-0.6875 0.0279,-0.0397 0.0985,-0.13994 0.15681,-0.22266 0.30847,-0.43756 0.88412,-1.26312 1.29108,-1.85156 0.10178,-0.14717 0.2082,-0.30097 0.23649,-0.34179 0.0584,-0.0843 0.0507,-0.0791 0.10988,-0.0742 l 0.032,0.003 -0.0378,0.0553 c -0.0365,0.0534 -0.11096,0.16126 -0.26252,0.38026 -0.0398,0.0574 -0.0826,0.11944 -0.0952,0.13779 -0.0126,0.0184 -0.0321,0.0466 -0.0434,0.0627 -0.0112,0.0161 -0.0807,0.11631 -0.15446,0.22265 -0.0737,0.10635 -0.15367,0.22149 -0.17766,0.25586 -0.024,0.0344 -0.0785,0.1126 -0.12114,0.17383 -0.11403,0.16371 -0.5685,0.81329 -0.63404,0.90625 -0.0311,0.0441 -0.075,0.10645 -0.0977,0.13867 -0.0227,0.0322 -0.0574,0.0815 -0.0771,0.10938 -0.0197,0.0279 -0.0823,0.1167 -0.13913,0.19726 -0.0568,0.0806 -0.13999,0.19834 -0.18486,0.26172 -0.0449,0.0634 -0.11516,0.1627 -0.15621,0.22071 -0.16659,0.23536 -0.36834,0.51887 -0.59904,0.84179 -0.194,0.27155 -0.29578,0.41362 -0.41838,0.58399 -0.0294,0.0408 -0.0944,0.13135 -0.14453,0.20117 -0.0501,0.0698 -0.10262,0.14277 -0.11667,0.16211 -0.0393,0.0541 -0.11325,0.1565 -0.2468,0.3418 -0.10871,0.15083 -0.51411,0.70908 -0.68293,0.94043 -0.14078,0.19291 -0.22458,0.30762 -0.26982,0.36937 -0.0249,0.034 -0.054,0.0738 -0.0648,0.0886 -0.0107,0.0148 -0.045,0.0616 -0.0762,0.10404 -0.0312,0.0425 -0.0892,0.12156 -0.12891,0.17577 -0.24524,0.33446 -0.59019,0.80159 -0.89965,1.21828 -0.0622,0.0838 -0.14761,0.19878 -0.18975,0.25553 -0.10549,0.14209 -1.01339,1.35267 -1.14425,1.52572 -0.0585,0.0773 -0.14504,0.19204 -0.19234,0.25488 l -0.086,0.11426 -0.0262,-6.8e-4 c -0.0144,-3.8e-4 -0.0337,-10e-4 -0.0428,-0.002 z"
     id="path153" />
  <path
     style="fill:#a0a0a0;stroke:none;stroke-width:0.00390625"
     d="m 626.58449,571.70056 c -0.009,-8.2e-4 -0.0166,-0.003 -0.0166,-0.004 0,-0.003 0.0676,-0.0927 0.31258,-0.41714 0.84891,-1.12422 1.89528,-2.5345 2.71278,-3.65625 0.0642,-0.0881 0.16093,-0.2208 0.21497,-0.29492 0.13549,-0.18582 0.45996,-0.63388 0.64779,-0.89453 0.0859,-0.11924 0.18347,-0.25459 0.21676,-0.30078 0.0333,-0.0462 0.0687,-0.0954 0.0787,-0.10938 0.46204,-0.64453 0.74762,-1.04474 1.03129,-1.44531 0.3156,-0.44563 0.34742,-0.49068 0.48574,-0.6875 0.0279,-0.0397 0.0985,-0.13994 0.15681,-0.22266 0.30847,-0.43756 0.88412,-1.26312 1.29108,-1.85156 0.10178,-0.14717 0.2082,-0.30097 0.23649,-0.34179 0.0584,-0.0843 0.0507,-0.0791 0.10988,-0.0742 l 0.032,0.003 -0.0378,0.0553 c -0.0365,0.0534 -0.11096,0.16126 -0.26252,0.38026 -0.0398,0.0574 -0.0826,0.11944 -0.0952,0.13779 -0.0126,0.0184 -0.0321,0.0466 -0.0434,0.0627 -0.0112,0.0161 -0.0807,0.11631 -0.15446,0.22265 -0.0737,0.10635 -0.15367,0.22149 -0.17766,0.25586 -0.024,0.0344 -0.0785,0.1126 -0.12114,0.17383 -0.11403,0.16371 -0.5685,0.81329 -0.63404,0.90625 -0.0311,0.0441 -0.075,0.10645 -0.0977,0.13867 -0.0227,0.0322 -0.0574,0.0815 -0.0771,0.10938 -0.0197,0.0279 -0.0823,0.1167 -0.13913,0.19726 -0.0568,0.0806 -0.13999,0.19834 -0.18486,0.26172 -0.0449,0.0634 -0.11516,0.1627 -0.15621,0.22071 -0.16659,0.23536 -0.36834,0.51887 -0.59904,0.84179 -0.194,0.27155 -0.29578,0.41362 -0.41838,0.58399 -0.0294,0.0408 -0.0944,0.13135 -0.14453,0.20117 -0.0501,0.0698 -0.10262,0.14277 -0.11667,0.16211 -0.0393,0.0541 -0.11325,0.1565 -0.2468,0.3418 -0.10871,0.15083 -0.51411,0.70908 -0.68293,0.94043 -0.14078,0.19291 -0.22458,0.30762 -0.26982,0.36937 -0.0249,0.034 -0.054,0.0738 -0.0648,0.0886 -0.0107,0.0148 -0.045,0.0616 -0.0762,0.10404 -0.0312,0.0425 -0.0892,0.12156 -0.12891,0.17577 -0.24524,0.33446 -0.59019,0.80159 -0.89965,1.21828 -0.0622,0.0838 -0.14761,0.19878 -0.18975,0.25553 -0.10549,0.14209 -1.01339,1.35267 -1.14425,1.52572 -0.0585,0.0773 -0.14504,0.19204 -0.19234,0.25488 l -0.086,0.11426 -0.0262,-6.8e-4 c -0.0144,-3.8e-4 -0.0337,-10e-4 -0.0428,-0.002 z"
     id="path155" />
  <path
     style="fill:#a0a0a0;stroke:none;stroke-width:0.00390625"
     d="m 626.58449,571.70056 c -0.009,-8.2e-4 -0.0166,-0.003 -0.0166,-0.004 0,-0.003 0.0676,-0.0927 0.31258,-0.41714 0.84891,-1.12422 1.89528,-2.5345 2.71278,-3.65625 0.0642,-0.0881 0.16093,-0.2208 0.21497,-0.29492 0.13549,-0.18582 0.45996,-0.63388 0.64779,-0.89453 0.0859,-0.11924 0.18347,-0.25459 0.21676,-0.30078 0.0333,-0.0462 0.0687,-0.0954 0.0787,-0.10938 0.46204,-0.64453 0.74762,-1.04474 1.03129,-1.44531 0.3156,-0.44563 0.34742,-0.49068 0.48574,-0.6875 0.0279,-0.0397 0.0985,-0.13994 0.15681,-0.22266 0.30847,-0.43756 0.88412,-1.26312 1.29108,-1.85156 0.10178,-0.14717 0.2082,-0.30097 0.23649,-0.34179 0.0584,-0.0843 0.0507,-0.0791 0.10988,-0.0742 l 0.032,0.003 -0.0378,0.0553 c -0.0365,0.0534 -0.11096,0.16126 -0.26252,0.38026 -0.0398,0.0574 -0.0826,0.11944 -0.0952,0.13779 -0.0126,0.0184 -0.0321,0.0466 -0.0434,0.0627 -0.0112,0.0161 -0.0807,0.11631 -0.15446,0.22265 -0.0737,0.10635 -0.15367,0.22149 -0.17766,0.25586 -0.024,0.0344 -0.0785,0.1126 -0.12114,0.17383 -0.11403,0.16371 -0.5685,0.81329 -0.63404,0.90625 -0.0311,0.0441 -0.075,0.10645 -0.0977,0.13867 -0.0227,0.0322 -0.0574,0.0815 -0.0771,0.10938 -0.0197,0.0279 -0.0823,0.1167 -0.13913,0.19726 -0.0568,0.0806 -0.13999,0.19834 -0.18486,0.26172 -0.0449,0.0634 -0.11516,0.1627 -0.15621,0.22071 -0.16659,0.23536 -0.36834,0.51887 -0.59904,0.84179 -0.194,0.27155 -0.29578,0.41362 -0.41838,0.58399 -0.0294,0.0408 -0.0944,0.13135 -0.14453,0.20117 -0.0501,0.0698 -0.10262,0.14277 -0.11667,0.16211 -0.0393,0.0541 -0.11325,0.1565 -0.2468,0.3418 -0.10871,0.15083 -0.51411,0.70908 -0.68293,0.94043 -0.14078,0.19291 -0.22458,0.30762 -0.26982,0.36937 -0.0249,0.034 -0.054,0.0738 -0.0648,0.0886 -0.0107,0.0148 -0.045,0.0616 -0.0762,0.10404 -0.0312,0.0425 -0.0892,0.12156 -0.12891,0.17577 -0.24524,0.33446 -0.59019,0.80159 -0.89965,1.21828 -0.0622,0.0838 -0.14761,0.19878 -0.18975,0.25553 -0.10549,0.14209 -1.01339,1.35267 -1.14425,1.52572 -0.0585,0.0773 -0.14504,0.19204 -0.19234,0.25488 l -0.086,0.11426 -0.0262,-6.8e-4 c -0.0144,-3.8e-4 -0.0337,-10e-4 -0.0428,-0.002 z"
     id="path157" />
  <path
     style="fill:#a0a0a0;stroke:none;stroke-width:0.00390625"
     d="m 626.58449,571.70056 c -0.009,-8.2e-4 -0.0166,-0.003 -0.0166,-0.004 0,-0.003 0.0676,-0.0927 0.31258,-0.41714 0.84891,-1.12422 1.89528,-2.5345 2.71278,-3.65625 0.0642,-0.0881 0.16093,-0.2208 0.21497,-0.29492 0.13549,-0.18582 0.45996,-0.63388 0.64779,-0.89453 0.0859,-0.11924 0.18347,-0.25459 0.21676,-0.30078 0.0333,-0.0462 0.0687,-0.0954 0.0787,-0.10938 0.46204,-0.64453 0.74762,-1.04474 1.03129,-1.44531 0.3156,-0.44563 0.34742,-0.49068 0.48574,-0.6875 0.0279,-0.0397 0.0985,-0.13994 0.15681,-0.22266 0.30847,-0.43756 0.88412,-1.26312 1.29108,-1.85156 0.10178,-0.14717 0.2082,-0.30097 0.23649,-0.34179 0.0584,-0.0843 0.0507,-0.0791 0.10988,-0.0742 l 0.032,0.003 -0.0378,0.0553 c -0.0365,0.0534 -0.11096,0.16126 -0.26252,0.38026 -0.0398,0.0574 -0.0826,0.11944 -0.0952,0.13779 -0.0126,0.0184 -0.0321,0.0466 -0.0434,0.0627 -0.0112,0.0161 -0.0807,0.11631 -0.15446,0.22265 -0.0737,0.10635 -0.15367,0.22149 -0.17766,0.25586 -0.024,0.0344 -0.0785,0.1126 -0.12114,0.17383 -0.11403,0.16371 -0.5685,0.81329 -0.63404,0.90625 -0.0311,0.0441 -0.075,0.10645 -0.0977,0.13867 -0.0227,0.0322 -0.0574,0.0815 -0.0771,0.10938 -0.0197,0.0279 -0.0823,0.1167 -0.13913,0.19726 -0.0568,0.0806 -0.13999,0.19834 -0.18486,0.26172 -0.0449,0.0634 -0.11516,0.1627 -0.15621,0.22071 -0.16659,0.23536 -0.36834,0.51887 -0.59904,0.84179 -0.194,0.27155 -0.29578,0.41362 -0.41838,0.58399 -0.0294,0.0408 -0.0944,0.13135 -0.14453,0.20117 -0.0501,0.0698 -0.10262,0.14277 -0.11667,0.16211 -0.0393,0.0541 -0.11325,0.1565 -0.2468,0.3418 -0.10871,0.15083 -0.51411,0.70908 -0.68293,0.94043 -0.14078,0.19291 -0.22458,0.30762 -0.26982,0.36937 -0.0249,0.034 -0.054,0.0738 -0.0648,0.0886 -0.0107,0.0148 -0.045,0.0616 -0.0762,0.10404 -0.0312,0.0425 -0.0892,0.12156 -0.12891,0.17577 -0.24524,0.33446 -0.59019,0.80159 -0.89965,1.21828 -0.0622,0.0838 -0.14761,0.19878 -0.18975,0.25553 -0.10549,0.14209 -1.01339,1.35267 -1.14425,1.52572 -0.0585,0.0773 -0.14504,0.19204 -0.19234,0.25488 l -0.086,0.11426 -0.0262,-6.8e-4 c -0.0144,-3.8e-4 -0.0337,-10e-4 -0.0428,-0.002 z"
     id="path159" />
  <path
     style="fill:#a0a0a0;stroke:none;stroke-width:0.00390625"
     d="m 626.52727,571.6988 c 0.002,-0.003 0.11742,-0.15632 0.25709,-0.34108 1.82518,-2.41447 3.75355,-5.05854 5.52828,-7.58008 0.5002,-0.7107 1.31361,-1.87879 1.61094,-2.31338 0.0446,-0.0652 0.0447,-0.0653 0.0596,-0.0654 l 0.0149,-10e-5 -0.0212,0.0303 c -0.0117,0.0167 -0.0982,0.14189 -0.19239,0.27832 -1.80662,2.61752 -3.69282,5.25141 -5.59754,7.8164 -0.42704,0.57507 -1.07111,1.43474 -1.47941,1.97461 -0.15232,0.20142 -0.15374,0.20314 -0.16854,0.20436 -0.0115,9.6e-4 -0.0142,7e-5 -0.0118,-0.004 z"
     id="path161" />
  <path
     style="fill:#a0a0a0;stroke:none;stroke-width:0.00390625"
     d="m 626.52727,571.6988 c 0.002,-0.003 0.11742,-0.15632 0.25709,-0.34108 1.82518,-2.41447 3.75355,-5.05854 5.52828,-7.58008 0.5002,-0.7107 1.31361,-1.87879 1.61094,-2.31338 0.0446,-0.0652 0.0447,-0.0653 0.0596,-0.0654 l 0.0149,-10e-5 -0.0212,0.0303 c -0.0117,0.0167 -0.0982,0.14189 -0.19239,0.27832 -1.80662,2.61752 -3.69282,5.25141 -5.59754,7.8164 -0.42704,0.57507 -1.07111,1.43474 -1.47941,1.97461 -0.15232,0.20142 -0.15374,0.20314 -0.16854,0.20436 -0.0115,9.6e-4 -0.0142,7e-5 -0.0118,-0.004 z"
     id="path163" />
  <path
     style="fill:#a0a0a0;stroke:none;stroke-width:0.00390625"
     d="m 626.52727,571.6988 c 0.002,-0.003 0.11742,-0.15632 0.25709,-0.34108 1.82518,-2.41447 3.75355,-5.05854 5.52828,-7.58008 0.5002,-0.7107 1.31361,-1.87879 1.61094,-2.31338 0.0446,-0.0652 0.0447,-0.0653 0.0596,-0.0654 l 0.0149,-10e-5 -0.0212,0.0303 c -0.0117,0.0167 -0.0982,0.14189 -0.19239,0.27832 -1.80662,2.61752 -3.69282,5.25141 -5.59754,7.8164 -0.42704,0.57507 -1.07111,1.43474 -1.47941,1.97461 -0.15232,0.20142 -0.15374,0.20314 -0.16854,0.20436 -0.0115,9.6e-4 -0.0142,7e-5 -0.0118,-0.004 z"
     id="path165" />
</svg>
