<?xml version="1.0" encoding="UTF-8" standalone="no"?>
<svg
   xmlns="http://www.w3.org/2000/svg"
   id="svg8"
   version="1.1"
   viewBox="0 0 806.61632 806.61632"
   height="current"
   width="current">
  <defs
     id="defs2" />
  <metadata
     id="metadata5">
  </metadata>
  <g
     transform="translate(330.57415,287.52139)"
     id="layer1">
<path
       transform="matrix(0.26458333,0,0,0.26458333,-330.57415,-287.52139)"
       d="M 1427.5273 11.396484 A 1514.1803 1514.1803 0 0 0 444.26172 460.67188 L 557.39844 560.52734 A 1366.5477 1366.5477 0 0 1 1427.5273 161.09961 L 1427.5273 11.396484 z M 1621.0566 11.470703 L 1621.0566 160.79492 A 1366.5477 1366.5477 0 0 1 2494.4355 559.46094 L 2604.6504 462.18359 A 1514.1803 1514.1803 0 0 0 1621.0566 11.470703 z M 1621.0566 357.69922 L 1621.0566 663.33398 A 865.58592 865.58592 0 0 1 2116.6348 892.91406 L 2346.2324 690.26758 A 1168.7148 1168.7148 0 0 0 1621.0566 357.69922 z M 1427.5273 357.93359 A 1168.7148 1168.7148 0 0 0 704.81641 690.64062 L 932.21094 891.3418 A 865.58592 865.58592 0 0 1 1427.5273 663.17578 L 1427.5273 357.93359 z M 326.92578 594.92188 A 1514.1803 1514.1803 0 0 0 9.5332031 1522.5176 A 1514.1803 1514.1803 0 0 0 1427.5273 3033.6387 L 1427.5273 2887.0234 A 1366.5477 1366.5477 0 0 1 159.90039 1524.0605 A 1366.5477 1366.5477 0 0 1 440.19727 694.89648 L 326.92578 594.92188 z M 2721.8008 596.59961 L 2611.7832 693.70117 A 1366.5477 1366.5477 0 0 1 2892.9961 1524.0605 A 1366.5477 1366.5477 0 0 1 1621.0566 2887.3301 L 1621.0566 3033.5645 A 1514.1803 1514.1803 0 0 0 3037.8926 1522.5176 A 1514.1803 1514.1803 0 0 0 2721.8008 596.59961 z M 2463.2832 824.76953 L 2233.2402 1027.8066 A 865.58592 865.58592 0 0 1 2389.1699 1523.4141 A 865.58592 865.58592 0 0 1 1621.0566 2383.4941 L 1621.0566 2687.3359 A 1168.7148 1168.7148 0 0 0 2694.4277 1522.5176 A 1168.7148 1168.7148 0 0 0 2463.2832 824.76953 z M 587.82422 825.19531 A 1168.7148 1168.7148 0 0 0 356.99805 1522.5176 A 1168.7148 1168.7148 0 0 0 1427.5273 2687.0996 L 1427.5273 2383.6543 A 865.58592 865.58592 0 0 1 657.99805 1523.4141 A 865.58592 865.58592 0 0 1 815.24805 1025.9199 L 587.82422 825.19531 z M 1427.5273 959.52344 A 574.99376 574.99376 0 0 0 1153.5801 1086.7246 L 1259.6211 1180.3203 A 434.06728 434.06728 0 0 1 1427.5273 1100.8223 L 1427.5273 959.52344 z M 1621.0566 959.55469 L 1621.0566 1100.4883 A 434.06728 434.06728 0 0 1 1790.7324 1180.5605 L 1895.9629 1087.6836 A 574.99376 574.99376 0 0 0 1621.0566 959.55469 z M 1036.7266 1221.4004 A 574.99376 574.99376 0 0 0 949.21094 1526.332 A 574.99376 574.99376 0 0 0 1427.5273 2093.1387 L 1427.5273 1946.7715 A 434.06728 434.06728 0 0 1 1090.9551 1523.7969 A 434.06728 434.06728 0 0 1 1143.9219 1316.0117 L 1036.7266 1221.4004 z M 2012.4688 1222.6641 L 1906.3125 1316.3574 A 434.06728 434.06728 0 0 1 1959.0898 1523.7969 A 434.06728 434.06728 0 0 1 1621.0566 1947.1055 L 1621.0566 2093.1074 A 574.99376 574.99376 0 0 0 2099.1973 1526.332 A 574.99376 574.99376 0 0 0 2012.4688 1222.6641 z M 2582.4824 1508.8496 A 1054.7651 1054.7651 0 0 1 2582.5898 1523.709 A 1054.7651 1054.7651 0 0 1 2058.0938 2435.4902 A 1056.8591 1056.8591 0 0 0 2582.5723 1522.5176 A 1056.8591 1056.8591 0 0 0 2582.4824 1508.8496 z "
       style="fill:current;fill-opacity:1;stroke:current;stroke-width:0;stroke-linecap:round;stroke-miterlimit:4;stroke-dasharray:none;stroke-opacity:1"
       id="path839-1" />
  </g>
  <g
     id="layer2" />
</svg>
