<?xml version="1.0" encoding="UTF-8" standalone="no"?>
<svg
   id="svg8"
   version="1.1"
   viewBox="0 0 806.61632 806.61632"
   height="current"
   width="current"

   xmlns="http://www.w3.org/2000/svg"
   >
 
  <defs
     id="defs2" />
  <metadata
     id="metadata5" />
  <g
     transform="translate(330.57415,287.52139)"
     id="layer1">
    <path
       transform="matrix(0.26458333,0,0,0.26458333,-330.57415,-287.52139)"
       d="M 1427.5273,11.396484 C 1055.6561,35.067779 705.57096,195.02929 444.26172,460.67188 l 113.13672,99.85546 C 789.78426,326.8121 1098.8073,184.9568 1427.5273,161.09961 Z m 193.5293,0.07422 V 160.79492 c 329.7613,22.88412 640.0509,164.52015 873.3789,398.66602 l 110.2149,-97.27735 C 2343.4814,195.9394 1993.2397,35.447896 1621.0566,11.470703 Z m 0,346.228517 v 305.63476 c 185.6402,21.03837 359.4907,101.57587 495.5782,229.58008 L 2346.2324,690.26758 C 2150.9977,497.78481 1894.3073,380.06563 1621.0566,357.69922 Z m -193.5293,0.23437 C 1155.1267,380.90043 899.39548,498.62881 704.81641,690.64062 L 932.21094,891.3418 C 1068.4194,763.90413 1242.1504,683.87546 1427.5273,663.17578 Z M 326.92578,594.92188 C 121.18678,860.36604 9.5340767,1186.6767 9.5332031,1522.5176 9.5334736,1907.4524 156.14028,2277.9371 419.54331,2558.6392 c 263.40304,280.7021 623.82659,450.547 1007.98399,474.9995 V 2887.0234 C 1083.1259,2862.0275 760.95581,2707.5772 525.79009,2454.7251 290.62436,2201.873 159.90034,1869.3678 159.90039,1524.0605 159.90023,1224.4169 258.38623,933.07923 440.19727,694.89648 Z m 2394.87502,1.67773 -110.0176,97.10156 c 182.387,238.39118 281.2123,530.20043 281.2129,830.35933 2e-4,346.0539 -131.2883,679.2209 -367.363,932.2467 -236.0747,253.0258 -559.3529,407.0651 -904.5765,431.0229 v 146.2344 c 383.9385,-24.734 744.0645,-194.6918 1007.2228,-475.3485 263.1584,-280.6568 409.6129,-650.964 409.6132,-1035.6984 -2e-4,-335.114 -111.1701,-660.76053 -316.0918,-925.91799 z m -258.5176,228.16992 -230.043,203.03707 c 101.5005,145.3377 155.9297,318.3354 155.9297,495.6075 -10e-5,212.6897 -78.308,417.9344 -219.9817,576.5708 -141.6737,158.6363 -336.7947,259.5585 -548.1316,283.5092 v 303.8418 c 292.4793,-23.9402 565.2488,-157.0349 764.1104,-372.8389 198.8617,-215.8039 309.2605,-498.5219 309.2607,-791.9794 -6e-4,-251.3891 -81.0592,-496.0779 -231.1445,-697.74807 z M 587.82422,825.19531 C 437.93935,1026.7882 356.99818,1271.3102 356.99805,1522.5176 c 2.8e-4,292.9654 110.02997,575.2461 308.29517,790.9302 198.26521,215.684 470.30438,349.0393 762.23408,373.6518 v -303.4453 c -211.6202,-23.6301 -407.1052,-124.4348 -549.0731,-283.1377 -141.96794,-158.7029 -220.45631,-364.167 -220.45615,-577.1025 -2.6e-4,-178.058 54.91171,-351.7838 157.25,-497.4942 z m 839.70308,134.32813 c -101.0194,17.23066 -195.5983,61.14626 -273.9472,127.20116 l 106.041,93.5957 c 49.5757,-38.3061 106.8562,-65.4265 167.9062,-79.498 z m 193.5293,0.0312 v 140.93361 c 61.7196,14.002 119.6309,41.3311 169.6758,80.0722 l 105.2305,-92.8769 c -78.5166,-66.5435 -173.455,-110.79263 -274.9063,-128.12891 z m -584.33,261.84571 c -57.18951,91.426 -87.51577,197.0921 -87.51566,304.9316 6.3e-4,280.2552 202.05096,519.6856 478.31636,566.8067 v -146.3672 c -197.0016,-45.4084 -336.5713,-220.8074 -336.5722,-422.9746 9e-4,-72.6014 18.2121,-144.0429 52.9668,-207.7852 z m 975.7422,1.2637 -106.1563,93.6933 c 34.6327,63.6568 52.7768,134.9715 52.7773,207.4395 -9e-4,202.7278 -140.3292,378.4566 -338.0332,423.3086 v 146.0019 c 276.1839,-47.1953 478.1394,-286.5881 478.1407,-566.7754 -2e-4,-107.3334 -30.043,-212.524 -86.7285,-303.6679 z"
       style="fill:current;fill-opacity:1;stroke-width:0;stroke-linecap:round;stroke-miterlimit:4;stroke-dasharray:none;stroke-opacity:1"
       id="path839-1"
        />
  </g>
  <g
     id="layer2" />
</svg>
